<svg id="SvgjsSvg1044" xmlns="http://www.w3.org/2000/svg" version="1.1" xmlns:xlink="http://www.w3.org/1999/xlink" xmlns:svgjs="http://svgjs.com/svgjs" width="36" height="41"><defs id="SvgjsDefs1045"></defs><path id="SvgjsPath1046" d="M1356.05 77.3286L1348.7 77.3286C1348.698 81.01689999999999 1345.70877 84.0063 1342.02 84.0063C1338.33123 84.0063 1335.3419999999999 81.01689999999999 1335.34 77.3286L1328.1599999999999 77.3286C1326.9599999999998 77.3286 1325.5099999999998 77.17999999999999 1324.9299999999998 76.0235C1324.2699999999998 74.70949999999999 1325.2499999999998 73.3954 1326.4799999999998 71.7311C1327.86 69.8791 1330.0299999999997 67.492 1330.0299999999997 64.9667L1330.0299999999997 56.7879C1330.0299999999997 49.741 1335.2599999999998 44.008 1341.9999999999998 44.008C1348.7299999999998 44.008 1353.9999999999998 49.741 1353.9999999999998 56.7879L1353.9999999999998 64.9667C1353.9999999999998 67.53490000000001 1355.9999999999998 70.0536 1357.4699999999998 71.8313C1358.8399999999997 73.5035 1359.8299999999997 74.712 1359.2099999999998 76.0288C1358.6 77.32860000000001 1356.8099999999997 77.32860000000001 1356.0499999999997 77.32860000000001ZM1346.07999 77.3286L1337.96 77.3286C1337.96362 79.56782 1339.78223 81.3819 1342.01999 81.3819C1344.25776 81.3819 1346.07636 79.56782 1346.07998 77.3286ZM1327.68 74.6469C1327.8100000000002 74.656 1327.97 74.6613 1328.16 74.6613L1356.0500000000002 74.6613C1356.14 74.6613 1356.2300000000002 74.66 1356.3100000000002 74.6574C1356.0400000000002 74.298 1355.6900000000003 73.87599999999999 1355.4 73.5244C1353.69 71.4355 1351.3400000000001 68.49080000000001 1351.3400000000001 64.9667L1351.3400000000001 56.7879C1351.3400000000001 51.2114 1347.2600000000002 46.675200000000004 1342.0000000000002 46.675200000000004C1336.7300000000002 46.675200000000004 1332.7000000000003 51.211400000000005 1332.7000000000003 56.78790000000001L1332.7000000000003 64.9667C1332.7000000000003 68.3749 1330.1500000000003 71.27000000000001 1328.6200000000003 73.3224C1328.3100000000004 73.7366 1327.9400000000003 74.2472 1327.6800000000003 74.6469Z " fill="#cccccc" transform="matrix(1,0,0,1,-1324,-44)"></path></svg>