<svg id="SvgjsSvg1047" xmlns="http://www.w3.org/2000/svg" version="1.1" xmlns:xlink="http://www.w3.org/1999/xlink" xmlns:svgjs="http://svgjs.com/svgjs" width="46" height="42"><defs id="SvgjsDefs1048"></defs><path id="SvgjsPath1049" d="M1438 46.8567C1449.03 46.8567 1458 53.26519999999999 1458 61.1427C1458 69.0195 1449.03 75.42869999999999 1438 75.42869999999999L1437.32 75.43159999999999L1436.82 75.43279999999999C1436.03 75.43279999999999 1435.52 75.41199999999999 1434.71 75.29199999999999L1433.1100000000001 75.06309999999999L1432.0900000000001 76.3063C1431.6100000000001 76.87679999999999 1429.2 78.8564 1426.5500000000002 80.13019999999999C1427.0900000000001 78.70019999999998 1427.4800000000002 77.13919999999999 1427.5200000000002 75.59469999999999L1427.5300000000002 75.50949999999999L1427.5300000000002 73.5174L1425.9800000000002 72.72229999999999C1420.9100000000003 70.12849999999999 1418.0000000000002 65.90839999999999 1418.0000000000002 61.14269999999999C1418.0000000000002 53.26519999999999 1426.9700000000003 46.85669999999999 1438.0000000000002 46.85669999999999C1449.0300000000002 46.85669999999999 1438.0000000000002 46.85669999999999 1438.0000000000002 46.85669999999999ZM1415.14 61.1427C1415.14 67.0385 1418.64 72.1767 1424.68 75.2654C1424.68 75.3016 1424.67 75.3282 1424.67 75.3687C1424.67 77.9302 1423.23 80.74690000000001 1422.39 82.19640000000001C1422.3200000000002 82.35280000000002 1422.2900000000002 82.52280000000002 1422.2900000000002 82.70570000000001C1422.2900000000002 83.42410000000001 1422.8600000000001 84.00030000000001 1423.5800000000002 84.00030000000001C1423.69 84.00030000000001 1423.8600000000001 83.97800000000001 1423.92 83.97800000000001C1423.94 83.97800000000001 1423.95 83.97800000000001 1423.94 83.9822C1428.41 83.25250000000001 1433.3200000000002 79.30850000000001 1434.29 78.11850000000001C1435.3 78.26780000000001 1435.98 78.29010000000001 1436.82 78.29010000000001C1437.1699999999998 78.29010000000001 1437.55 78.28580000000001 1438 78.28580000000001C1450.62 78.28580000000001 1460.86 70.61130000000001 1460.86 61.142700000000005C1460.86 51.6754 1450.62 43.999500000000005 1438 43.999500000000005C1425.37 43.999500000000005 1415.14 51.6754 1415.14 61.142700000000005Z " fill="#cccccc" transform="matrix(1,0,0,1,-1415,-43)"></path></svg>