<svg id="SvgjsSvg1020" xmlns="http://www.w3.org/2000/svg" version="1.1" xmlns:xlink="http://www.w3.org/1999/xlink" xmlns:svgjs="http://svgjs.com/svgjs" width="24" height="24"><defs id="SvgjsDefs1021"></defs><path id="SvgjsPath1022" d="M245.581 194.775L254 203.19400000000002L262.419 194.775C263.19399999999996 194 264.45 194 265.22499999999997 194.775C265.99999999999994 195.55 265.99999999999994 196.806 265.22499999999997 197.58100000000002L256.806 206.00000000000003L265.22499999999997 214.41900000000004C265.99999999999994 215.19300000000004 265.99999999999994 216.45000000000005 265.22499999999997 217.22500000000005C264.45 218.00000000000006 263.19399999999996 218.00000000000006 262.419 217.22500000000005L253.99999999999997 208.80600000000004L245.58099999999996 217.22500000000005C244.80599999999995 218.00000000000006 243.54999999999995 218.00000000000006 242.77499999999995 217.22500000000005C241.99999999999994 216.45000000000005 241.99999999999994 215.19300000000004 242.77499999999995 214.41900000000004L251.19399999999996 206.00000000000003L242.77499999999995 197.58100000000002C241.99999999999994 196.806 241.99999999999994 195.55 242.77499999999995 194.775C243.54999999999995 194 244.80599999999995 194 245.58099999999996 194.775Z " fill="#ffffff" transform="matrix(1,0,0,1,-242,-194)"></path></svg>