<svg id="SvgjsSvg1050" xmlns="http://www.w3.org/2000/svg" version="1.1" xmlns:xlink="http://www.w3.org/1999/xlink" xmlns:svgjs="http://svgjs.com/svgjs" width="36" height="24"><defs id="SvgjsDefs1051"></defs><path id="SvgjsPath1052" d="M907.459 1114.05C907.459 1117.6599999999999 910.3839999999999 1120.58 913.9929999999999 1120.58C917.602 1120.58 920.5269999999999 1117.6599999999999 920.5269999999999 1114.05C920.5269999999999 1110.44 917.602 1107.51 913.9929999999999 1107.51C910.3839999999999 1107.51 907.459 1110.44 907.459 1114.05ZM913.943 1109.64C916.346 1109.64 918.299 1111.6000000000001 918.299 1114C918.299 1116.4 916.396 1118.4 913.9929999999999 1118.4C911.5909999999999 1118.4 909.587 1116.4 909.587 1114C909.587 1111.6 911.5409999999999 1109.64 913.943 1109.64C916.345 1109.64 913.943 1109.64 913.943 1109.64ZM896.535 1113.42C896.5219999999999 1113.45 896.524 1113.48 896.5129999999999 1113.52C896.506 1113.54 896.4899999999999 1113.55 896.483 1113.57C896.4659999999999 1113.62 896.473 1113.6799999999998 896.462 1113.74C896.442 1113.84 896.423 1113.93 896.423 1114.03C896.423 1114.1299999999999 896.442 1114.22 896.462 1114.32C896.473 1114.3799999999999 896.466 1114.4399999999998 896.483 1114.49C896.4899999999999 1114.51 896.506 1114.52 896.5129999999999 1114.54C896.5239999999999 1114.57 896.5219999999999 1114.61 896.535 1114.6399999999999C899.704 1121.8899999999999 906.6 1125.9999999999998 913.875 1125.9999999999998C921.151 1125.9999999999998 928.045 1121.8999999999999 931.213 1114.6499999999999C931.2289999999999 1114.62 931.226 1114.59 931.237 1114.55C931.245 1114.53 931.26 1114.52 931.266 1114.5C931.283 1114.45 931.2769999999999 1114.39 931.289 1114.33C931.309 1114.23 931.327 1114.1399999999999 931.327 1114.04C931.327 1113.94 931.309 1113.85 931.289 1113.75C931.277 1113.69 931.283 1113.63 931.266 1113.58C931.26 1113.56 931.245 1113.54 931.237 1113.52C931.226 1113.49 931.2289999999999 1113.46 931.213 1113.43C928.045 1106.17 921.2189999999999 1102 913.943 1102C906.668 1102 899.704 1106.17 896.535 1113.42ZM913.943 1104.18C920.126 1104.18 926.144 1107.52 929.101 1114.04C926.146 1120.55 920.061 1123.82 913.875 1123.82C907.705 1123.82 901.631 1120.57 898.648 1114.03C901.6030000000001 1107.51 907.7570000000001 1104.18 913.943 1104.18C920.129 1104.18 913.943 1104.18 913.943 1104.18Z " fill="#ffffff" transform="matrix(1,0,0,1,-896,-1102)"></path></svg>