<svg id="SvgjsSvg1029" xmlns="http://www.w3.org/2000/svg" version="1.1" xmlns:xlink="http://www.w3.org/1999/xlink" xmlns:svgjs="http://svgjs.com/svgjs" width="32" height="33"><defs id="SvgjsDefs1030"></defs><path id="SvgjsPath1031" d="M751.013 1108.88L751.013 1113.1000000000001C751.013 1114.94 751.792 1118.67 754.154 1120.5600000000002L747.702 1124.0600000000002C747.702 1124.0600000000002 746.016 1124.8100000000002 746.016 1125.7500000000002L746.016 1128.2800000000002C746.016 1129.2100000000003 746.7719999999999 1129.9700000000003 747.702 1129.9700000000003L769.305 1129.9700000000003C770.236 1129.9700000000003 770.992 1129.2100000000003 770.992 1128.2800000000002L770.992 1125.7500000000002C770.992 1124.7600000000002 769.305 1124.0600000000002 769.305 1124.0600000000002L763.016 1120.5800000000002C765.353 1118.7400000000002 765.9879999999999 1115.1200000000001 765.9879999999999 1113.1000000000001L765.9879999999999 1108.88C765.9879999999999 1106.0900000000001 762.2769999999999 1102.97 758.549 1102.97C754.823 1102.97 751.013 1106.09 751.013 1108.88ZM758.549 1104.97C761.435 1104.97 763.99 1107.41 763.99 1108.88L763.99 1113.1000000000001C763.99 1114.66 763.504 1117.65 761.78 1119.0100000000002C761.2529999999999 1119.4200000000003 760.9689999999999 1120.0700000000002 761.024 1120.7400000000002C761.081 1121.4100000000003 761.469 1122.0100000000002 762.059 1122.3300000000002L768.348 1125.8200000000002C768.404 1125.8500000000001 768.4739999999999 1125.88 768.5319999999999 1125.9C768.68 1125.97 768.8609999999999 1126.0700000000002 768.9939999999999 1126.16L768.9939999999999 1127.97L748.0139999999999 1127.97L748.0139999999999 1126.18C748.1569999999999 1126.0800000000002 748.3569999999999 1125.96 748.5149999999999 1125.89C748.5619999999999 1125.8700000000001 748.6089999999999 1125.8400000000001 748.6539999999999 1125.8200000000002L755.1059999999999 1122.3200000000002C755.6949999999999 1122.0000000000002 756.0849999999999 1121.41 756.1449999999999 1120.7400000000002C756.2039999999998 1120.0700000000002 755.9259999999998 1119.4200000000003 755.4039999999999 1119.0000000000002C753.7289999999999 1117.6600000000003 753.0109999999999 1114.6800000000003 753.0109999999999 1113.1000000000001L753.0109999999999 1108.88C753.0109999999999 1107.44 755.7159999999999 1104.97 758.5489999999999 1104.97C761.3819999999998 1104.97 758.5489999999999 1104.97 758.5489999999999 1104.97ZM776.297 1119.09L769.914 1115.6C772.251 1113.76 772.98 1110.1499999999999 772.98 1108.12L772.98 1103.8999999999999C772.98 1101.11 769.1750000000001 1097.9699999999998 765.448 1097.9699999999998C763.025 1097.9699999999998 760.548 1099.2899999999997 759.106 1100.9699999999998C759.929 1101.0199999999998 760.835 1101.0199999999998 761.619 1101.2699999999998C762.671 1100.4499999999998 764.003 1099.9699999999998 765.448 1099.9699999999998C768.333 1099.9699999999998 770.982 1102.4399999999998 770.982 1103.8999999999999L770.982 1108.12C770.982 1109.6899999999998 770.403 1112.6799999999998 768.679 1114.03C768.151 1114.45 767.867 1115.1 767.923 1115.77C767.979 1116.44 768.368 1117.03 768.957 1117.36L775.34 1120.84C775.3960000000001 1120.87 775.466 1120.8999999999999 775.525 1120.9299999999998C775.672 1120.9899999999998 775.853 1121.1 775.986 1121.1899999999998L775.986 1122.9599999999998L771.953 1122.9599999999998C772.562 1123.4199999999998 772.746 1124.0799999999997 772.982 1124.9599999999998L776.297 1124.9599999999998C777.2280000000001 1124.9599999999998 777.984 1124.2099999999998 777.984 1123.2699999999998L777.984 1120.7699999999998C777.984 1119.7799999999997 776.297 1119.0899999999997 776.297 1119.0899999999997Z " fill="#ffffff" transform="matrix(1,0,0,1,-746,-1097)"></path></svg>