<svg id="SvgjsSvg1038" xmlns="http://www.w3.org/2000/svg" version="1.1" xmlns:xlink="http://www.w3.org/1999/xlink" xmlns:svgjs="http://svgjs.com/svgjs" width="22" height="21"><defs id="SvgjsDefs1039"></defs><path id="SvgjsPath1040" d="M1447.23454 1059.81473L1452.62 1054.48C1452.86 1054.24 1453.26 1054.24 1453.5 1054.48C1453.75 1054.73 1453.75 1055.1200000000001 1453.5 1055.3700000000001L1448.13381 1060.70234L1451.1000000000001 1060.71C1451.3500000000001 1060.7 1451.5800000000002 1060.88 1451.6200000000001 1061.17L1451.6200000000001 1061.5C1451.6200000000001 1061.75 1451.41 1061.96 1451.15 1061.96L1446.65 1061.94C1446.64 1061.94 1446.64 1061.95 1446.63 1061.95L1446.41 1061.95C1446.28 1061.96 1446.17 1061.91 1446.0800000000002 1061.82C1446.0000000000002 1061.74 1445.9700000000003 1061.6299999999999 1445.9800000000002 1061.5L1446.0000000000002 1061.27C1446.0000000000002 1061.27 1445.9800000000002 1061.27 1445.9800000000002 1061.26L1446.0000000000002 1056.74C1446.0000000000002 1056.49 1446.2100000000003 1056.34 1446.4600000000003 1056.33L1446.8000000000002 1056.33C1447.0600000000002 1056.33 1447.2600000000002 1056.55 1447.2500000000002 1056.8ZM1464.78555 1044.09685L1459.4 1049.4399999999998C1459.16 1049.6899999999998 1458.76 1049.6899999999998 1458.52 1049.4399999999998C1458.27 1049.1999999999998 1458.27 1048.7999999999997 1458.52 1048.5599999999997L1463.87771 1043.2276399999996L1460.92 1043.2199999999996C1460.67 1043.2299999999996 1460.44 1043.0499999999995 1460.4 1042.7499999999995L1460.4 1042.4299999999996C1460.4 1042.1799999999996 1460.6100000000001 1041.9699999999996 1460.8700000000001 1041.9599999999996L1465.3500000000001 1041.9799999999996C1465.3600000000001 1041.9799999999996 1465.3600000000001 1041.9799999999996 1465.3700000000001 1041.9799999999996L1465.5900000000001 1041.9799999999996C1465.7200000000003 1041.9699999999996 1465.8300000000002 1042.0199999999995 1465.92 1042.0999999999995C1466 1042.1899999999994 1466.03 1042.2999999999995 1466.02 1042.4299999999994L1466 1042.6599999999994C1466 1042.6599999999994 1466.02 1042.6599999999994 1466.02 1042.6699999999994L1466 1047.1899999999994C1466 1047.4399999999994 1465.79 1047.5899999999995 1465.54 1047.5899999999995L1465.21 1047.5899999999995C1464.96 1047.5999999999995 1464.76 1047.3799999999994 1464.77 1047.1299999999994ZM1463.88619 1060.70234L1458.52 1055.3700000000001C1458.27 1055.1200000000001 1458.27 1054.73 1458.52 1054.48C1458.76 1054.24 1459.16 1054.24 1459.4 1054.48L1464.78555 1059.83162L1464.77 1056.8C1464.76 1056.55 1464.96 1056.33 1465.21 1056.33L1465.54 1056.33C1465.79 1056.34 1466 1056.49 1466 1056.74L1466.02 1061.26C1466.02 1061.27 1466 1061.27 1466 1061.27L1466.02 1061.5C1466.03 1061.63 1466 1061.74 1465.92 1061.82C1465.8300000000002 1061.9099999999999 1465.72 1061.96 1465.5900000000001 1061.95L1465.3700000000001 1061.95C1465.3600000000001 1061.95 1465.3600000000001 1061.94 1465.3500000000001 1061.94L1460.8700000000001 1061.96C1460.6100000000001 1061.96 1460.4 1061.75 1460.4 1061.5L1460.4 1061.17C1460.44 1060.88 1460.67 1060.7 1460.92 1060.71ZM1448.14229 1043.22764L1453.5 1048.5600000000002C1453.75 1048.8000000000002 1453.75 1049.2000000000003 1453.5 1049.4400000000003C1453.26 1049.6900000000003 1452.86 1049.6900000000003 1452.62 1049.4400000000003L1447.23453 1044.1137100000003L1447.25 1047.1300000000003C1447.26 1047.3800000000003 1447.06 1047.6000000000004 1446.8 1047.5900000000004L1446.46 1047.5900000000004C1446.21 1047.5900000000004 1446 1047.4400000000003 1446 1047.1900000000003L1445.98 1042.6700000000003C1445.98 1042.6600000000003 1446 1042.6600000000003 1446 1042.6600000000003L1445.98 1042.4300000000003C1445.97 1042.3000000000002 1446 1042.1900000000003 1446.08 1042.1000000000004C1446.1699999999998 1042.0200000000004 1446.28 1041.9700000000003 1446.4099999999999 1041.9800000000005C1446.4199999999998 1041.9800000000005 1446.6399999999999 1041.9800000000005 1446.6499999999999 1041.9800000000005L1451.1499999999999 1041.9600000000005C1451.4099999999999 1041.9700000000005 1451.62 1042.1800000000005 1451.62 1042.4300000000005L1451.62 1042.7500000000005C1451.58 1043.0500000000004 1451.35 1043.2300000000005 1451.1 1043.2200000000005Z " fill="#ffffff" transform="matrix(1,0,0,1,-1445,-1041)"></path></svg>