<svg id="SvgjsSvg1026" xmlns="http://www.w3.org/2000/svg" version="1.1" xmlns:xlink="http://www.w3.org/1999/xlink" xmlns:svgjs="http://svgjs.com/svgjs" width="32" height="29"><defs id="SvgjsDefs1027"></defs><path id="SvgjsPath1028" d="M591.273 1102.75C592.2230000000001 1102.75 593.941 1103.21 596.7280000000001 1105.95L598.109 1107.31L599.47 1105.9299999999998C601.405 1103.9599999999998 603.464 1102.7399999999998 604.8430000000001 1102.7399999999998C606.7030000000001 1102.7399999999998 608.1690000000001 1103.3799999999999 609.599 1104.7999999999997C610.946 1106.1499999999996 611.6880000000001 1107.9399999999998 611.6880000000001 1109.8399999999997C611.6890000000001 1111.7399999999998 610.9470000000001 1113.5299999999997 609.5860000000001 1114.8799999999997C609.4750000000001 1114.9999999999995 603.6190000000001 1121.3199999999997 598.7120000000001 1126.6099999999997C598.4820000000001 1126.8299999999997 598.2170000000001 1126.8599999999997 598.0770000000001 1126.8599999999997C597.9390000000001 1126.8599999999997 597.6770000000001 1126.8299999999997 597.4470000000001 1126.6199999999997C596.2520000000001 1125.2899999999997 587.5860000000001 1115.6499999999996 586.5780000000001 1114.6499999999996C585.2300000000001 1113.2999999999997 584.488 1111.5099999999995 584.488 1109.6099999999997C584.488 1107.7099999999996 585.23 1105.9199999999996 586.5790000000001 1104.5799999999997C587.8910000000001 1103.2699999999998 589.426 1102.7499999999998 591.273 1102.7499999999998C593.119 1102.7499999999998 591.273 1102.7499999999998 591.273 1102.7499999999998ZM585.209 1103.21C581.6629999999999 1106.74 581.6629999999999 1112.48 585.209 1116.02C586.2209999999999 1117.03 596.049 1127.96 596.049 1127.96C596.6089999999999 1128.52 597.3439999999999 1128.8 598.077 1128.8C598.81 1128.8 599.544 1128.52 600.103 1127.96C600.103 1127.96 610.853 1116.3600000000001 610.968 1116.24C614.514 1112.7 614.514 1106.97 610.968 1103.43C609.208 1101.68 607.241 1100.8 604.843 1100.8C602.5519999999999 1100.8 599.996 1102.6299999999999 598.088 1104.57C596.1189999999999 1102.6299999999999 593.6429999999999 1100.81 591.2729999999999 1100.81C588.954 1100.81 586.911 1101.51 585.209 1103.21Z " fill="#ffffff" transform="matrix(1,0,0,1,-582,-1100)"></path></svg>