<svg id="SvgjsSvg1017" xmlns="http://www.w3.org/2000/svg" version="1.1" xmlns:xlink="http://www.w3.org/1999/xlink" xmlns:svgjs="http://svgjs.com/svgjs" width="36" height="36"><defs id="SvgjsDefs1018"></defs><path id="SvgjsPath1019" d="M614 410C614 419.941 605.941 428 596 428C586.059 428 578 419.941 578 410C578 400.059 586.059 392 596 392C605.941 392 614 400.059 614 410ZM580.25 410C580.25 418.685 587.315 425.785 596 425.785C604.685 425.785 611.75 418.685 611.75 410C611.75 401.315 604.685 394.25 596 394.25C587.315 394.25 580.25 401.315 580.25 410ZM594.488 417.173C594.201 417.173 593.913 417.063 593.6930000000001 416.843L587.0480000000001 410.023L593.6930000000001 403.202C594.1320000000001 402.763 594.844 402.763 595.2840000000001 403.202C595.7230000000001 403.642 595.7230000000001 404.353 595.2840000000001 404.793L591.214 408.863L603.8860000000001 408.863C604.508 408.863 605.0110000000001 409.367 605.0110000000001 409.988C605.0110000000001 410.609 604.508 411.113 603.8860000000001 411.113L591.14421 411.113L595.284 415.252C595.723 415.692 595.723 416.404 595.284 416.843C595.064 417.06300000000005 594.776 417.173 594.4879999999999 417.173Z " fill="#e0e0e0" transform="matrix(1,0,0,1,-578,-392)"></path></svg>