<svg id="SvgjsSvg1014" xmlns="http://www.w3.org/2000/svg" version="1.1" xmlns:xlink="http://www.w3.org/1999/xlink" xmlns:svgjs="http://svgjs.com/svgjs" width="24" height="29"><defs id="SvgjsDefs1015"></defs><path id="SvgjsPath1016" d="M105 592.5L105 589.16C105 585.212 107.824 581.999 111.968 581.999C116.095 581.999 119 585.145 119 589.16L119 592.5L119.875 592.5C121.806 592.5 123.375 594.07 123.375 596L123.375 606.5C123.375 608.431 121.806 610 119.875 610L104.125 610C102.194 610 100.625 608.431 100.625 606.5L100.625 596C100.625 594.07 102.194 592.5 104.125 592.5ZM104.125 594.25C103.16 594.25 102.375 595.035 102.375 596L102.375 606.5C102.375 607.465 103.16 608.25 104.125 608.25L119.875 608.25C120.84 608.25 121.625 607.465 121.625 606.5L121.625 596C121.625 595.035 120.84 594.25 119.875 594.25ZM117.25 592.5L117.25 589.16C117.25 586.126 115.114 583.75 111.968 583.75C108.789 583.75 106.75 586.177 106.75 589.16L106.75 592.5ZM112 597.75C112.967 597.75 113.75 598.533 113.75 599.5C113.75 600.14751 113.3982 600.71324 112.875 601.0159L112.875 603.875C112.875 604.358 112.483 604.75 112 604.75C111.517 604.75 111.125 604.358 111.125 603.875L111.125 601.0159C110.6018 600.71324 110.25 600.1475 110.25 599.5C110.25 598.533 111.033 597.75 112 597.75Z " fill="#cccccc" transform="matrix(1,0,0,1,-100,-581)"></path></svg>