<svg id="SvgjsSvg1041" xmlns="http://www.w3.org/2000/svg" version="1.1" xmlns:xlink="http://www.w3.org/1999/xlink" xmlns:svgjs="http://svgjs.com/svgjs" width="41" height="40"><defs id="SvgjsDefs1042"></defs><path id="SvgjsPath1043" d="M1247.79 83.6008C1247.3 84.08770000000001 1246.51 84.08770000000001 1246.03 83.6008L1233.9357 71.43226000000001C1231.19837 73.81170000000002 1227.62247 75.25230000000002 1223.71 75.25230000000002C1215.1100000000001 75.25230000000002 1208.13 68.27570000000001 1208.13 59.66980000000002C1208.13 51.06380000000002 1215.1100000000001 44.08730000000003 1223.71 44.08730000000003C1232.32 44.08730000000003 1239.3 51.06380000000003 1239.3 59.66980000000002C1239.3 63.46852000000003 1237.94 66.94978000000002 1235.68014 69.65370000000003L1247.79 81.83780000000003C1248.28 82.32460000000003 1248.28 83.11400000000003 1247.79 83.60080000000004ZM1210.6 59.6698C1210.6 66.9102 1216.4699999999998 72.7798 1223.7099999999998 72.7798C1230.9499999999998 72.7798 1236.8199999999997 66.91019999999999 1236.8199999999997 59.669799999999995C1236.8199999999997 52.4293 1230.9499999999998 46.559799999999996 1223.7099999999998 46.559799999999996C1216.4699999999998 46.559799999999996 1210.6 52.4293 1210.6 59.669799999999995Z " fill="#dedede" transform="matrix(1,0,0,1,-1208,-44)"></path></svg>