<svg id="SvgjsSvg1011" xmlns="http://www.w3.org/2000/svg" version="1.1" xmlns:xlink="http://www.w3.org/1999/xlink" xmlns:svgjs="http://svgjs.com/svgjs" width="29" height="28"><defs id="SvgjsDefs1012"></defs><path id="SvgjsPath1013" d="M113.991 499.751C116.964 499.751 120.117 502.255 120.117 504.125L120.117 508.499C120.117 510.18300000000005 119.41600000000001 513.405 117.53800000000001 514.884C117.05900000000001 515.261 116.811 515.86 116.88300000000001 516.465C116.95400000000001 517.072 117.33600000000001 517.596 117.89000000000001 517.85L125.50900000000001 521.4630000000001C125.56900000000002 521.4900000000001 126.23900000000002 521.6030000000001 126.23900000000002 522.5400000000001L126.24000000000002 524.248L101.74200000000002 524.249L101.74200000000002 522.4730000000001C101.74200000000002 521.777 102.26500000000001 521.5580000000001 102.47300000000001 521.4620000000001L110.162 517.8340000000001C110.71300000000001 517.581 111.093 517.0600000000001 111.167 516.4580000000001C111.241 515.8560000000001 110.999 515.258 110.526 514.8790000000001C108.707 513.4190000000001 107.86 510.2090000000001 107.86 508.49900000000014L107.86 504.1250000000001C107.86 502.29500000000013 111.044 499.7510000000001 113.991 499.7510000000001C116.938 499.7510000000001 113.991 499.7510000000001 113.991 499.7510000000001ZM106.109 504.125L106.109 508.499C106.109 510.411 106.981 514.279 109.42999999999999 516.244L101.74099999999999 519.8720000000001C101.74099999999999 519.8720000000001 99.99139999999998 520.652 99.99139999999998 521.6220000000001L99.99139999999998 524.249C99.99139999999998 525.216 100.77499999999999 525.999 101.74099999999999 525.999L126.23999999999998 525.999C127.20699999999998 525.999 127.98999999999998 525.216 127.98999999999998 524.249L127.98999999999998 521.6220000000001C127.98999999999998 520.594 126.23999999999998 519.8720000000001 126.23999999999998 519.8720000000001L118.62099999999998 516.259C121.04699999999998 514.35 121.86699999999998 510.601 121.86699999999998 508.499L121.86699999999998 504.125C121.86699999999998 501.227 117.85599999999998 498 113.99099999999997 498C110.12499999999997 498 106.10899999999997 501.227 106.10899999999997 504.125Z " fill="#4e90c7" transform="matrix(1,0,0,1,-99,-498)"></path></svg>