<svg id="SvgjsSvg1032" xmlns="http://www.w3.org/2000/svg" version="1.1" xmlns:xlink="http://www.w3.org/1999/xlink" xmlns:svgjs="http://svgjs.com/svgjs" width="30" height="30"><defs id="SvgjsDefs1033"></defs><path id="SvgjsPath1034" d="M1136 1037C1127.72 1037 1121 1043.72 1121 1052C1121 1060.28 1127.72 1067 1136 1067C1144.28 1067 1151 1060.28 1151 1052C1151 1043.72 1144.28 1037 1136 1037ZM1142.06 1053.9L1132.77 1059.23C1131.52 1059.94 1130.51 1059.3600000000001 1130.51 1057.92L1130.51 1047.29C1130.51 1045.85 1131.52 1045.26 1132.77 1045.98L1142.06 1051.3C1143.31 1052.02 1143.31 1053.18 1142.06 1053.8999999999999Z " fill="#ffffff" transform="matrix(1,0,0,1,-1121,-1037)"></path></svg>