<svg id="SvgjsSvg1053" xmlns="http://www.w3.org/2000/svg" version="1.1" xmlns:xlink="http://www.w3.org/1999/xlink" xmlns:svgjs="http://svgjs.com/svgjs" width="36" height="36"><defs id="SvgjsDefs1054"></defs><path id="SvgjsPath1055" d="M950 410C950 419.942 958.059 428 968 428C977.942 428 986 419.942 986 410C986 400.059 977.942 392 968 392C958.059 392 950 400.059 950 410ZM968 394.25C976.685 394.25 983.75 401.315 983.75 410C983.75 418.685 976.685 425.785 968 425.785C959.315 425.785 952.25 418.685 952.25 410C952.25 401.315 959.315 394.25 968 394.25C976.685 394.25 968 394.25 968 394.25ZM969.512 417.173C969.8 417.173 970.087 417.063 970.3069999999999 416.843L976.9519999999999 410.023L970.3069999999999 403.202C969.8679999999999 402.763 969.156 402.763 968.7159999999999 403.202C968.2769999999999 403.642 968.2769999999999 404.354 968.7159999999999 404.793L972.786 408.863L960.1139999999999 408.863C959.492 408.863 958.9889999999999 409.367 958.9889999999999 409.988C958.9889999999999 410.609 959.492 411.113 960.1139999999999 411.113L972.8559999999999 411.113L968.7159999999999 415.253C968.2769999999999 415.692 968.2769999999999 416.404 968.7159999999999 416.84299999999996C968.9359999999999 417.063 969.2239999999999 417.17299999999994 969.512 417.17299999999994Z " fill="#e0e0e0" transform="matrix(1,0,0,1,-950,-392)"></path></svg>