<svg id="SvgjsSvg1035" xmlns="http://www.w3.org/2000/svg" version="1.1" xmlns:xlink="http://www.w3.org/1999/xlink" xmlns:svgjs="http://svgjs.com/svgjs" width="28" height="20"><defs id="SvgjsDefs1036"></defs><path id="SvgjsPath1037" d="M1496.48 1042C1496.1200000000001 1042 1495.81 1042.13 1495.55 1042.39L1488.73 1046.76L1483.3600000000001 1046.76C1483.0000000000002 1046.76 1482.7 1046.8799999999999 1482.44 1047.14C1482.18 1047.4 1482.05 1047.71 1482.05 1048.0700000000002L1482.05 1055.93C1482.05 1056.29 1482.18 1056.6000000000001 1482.44 1056.8600000000001C1482.7 1057.1200000000001 1483 1057.2400000000002 1483.3600000000001 1057.2400000000002L1488.73 1057.2400000000002L1495.55 1061.6100000000001C1495.81 1061.8700000000001 1496.12 1062.0000000000002 1496.48 1062.0000000000002C1496.83 1062.0000000000002 1497.14 1061.8700000000001 1497.4 1061.6100000000001C1497.66 1061.3500000000001 1497.7900000000002 1061.0400000000002 1497.7900000000002 1060.69L1497.7900000000002 1043.31C1497.7900000000002 1042.96 1497.66 1042.6499999999999 1497.4 1042.3899999999999C1497.14 1042.1299999999999 1496.8300000000002 1041.9999999999998 1496.48 1041.9999999999998ZM1503.84 1054.9C1504.4199999999998 1054 1504.7099999999998 1053.0400000000002 1504.7099999999998 1052C1504.7099999999998 1050.96 1504.4199999999998 1049.99 1503.84 1049.09C1503.25 1048.1899999999998 1502.49 1047.55 1501.53 1047.1899999999998C1501.3899999999999 1047.12 1501.22 1047.08 1501.02 1047.08C1500.66 1047.08 1500.35 1047.21 1500.09 1047.46C1499.84 1047.71 1499.7099999999998 1048.03 1499.7099999999998 1048.39C1499.7099999999998 1048.68 1499.7899999999997 1048.92 1499.9499999999998 1049.1200000000001C1500.12 1049.3200000000002 1500.3099999999997 1049.49 1500.5499999999997 1049.63C1500.7799999999997 1049.7800000000002 1501.0099999999998 1049.93 1501.2399999999998 1050.1100000000001C1501.4699999999998 1050.2800000000002 1501.6699999999998 1050.5200000000002 1501.8399999999997 1050.8300000000002C1501.9999999999998 1051.15 1502.0799999999997 1051.5400000000002 1502.0799999999997 1052.0000000000002C1502.0799999999997 1052.4600000000003 1501.9999999999998 1052.8500000000001 1501.8399999999997 1053.1700000000003C1501.6699999999996 1053.4800000000002 1501.4699999999998 1053.7200000000003 1501.2399999999998 1053.9000000000003C1501.0099999999998 1054.0700000000004 1500.7799999999997 1054.2200000000003 1500.5499999999997 1054.3700000000003C1500.3099999999997 1054.5100000000004 1500.1199999999997 1054.6800000000003 1499.9499999999998 1054.8800000000003C1499.7899999999997 1055.0800000000004 1499.7099999999998 1055.3200000000004 1499.7099999999998 1055.6100000000004C1499.7099999999998 1055.9800000000002 1499.84 1056.2900000000004 1500.09 1056.5400000000004C1500.35 1056.7900000000004 1500.6599999999999 1056.9200000000005 1501.02 1056.9200000000005C1501.22 1056.9200000000005 1501.3899999999999 1056.8800000000006 1501.53 1056.8200000000006C1502.49 1056.4300000000005 1503.25 1055.7900000000006 1503.84 1054.9000000000005ZM1503.6 1042.35C1503.4199999999998 1042.28 1503.24 1042.25 1503.07 1042.25C1502.71 1042.25 1502.3999999999999 1042.38 1502.1399999999999 1042.64C1501.8799999999999 1042.9 1501.7599999999998 1043.2 1501.7599999999998 1043.5600000000002C1501.7599999999998 1044.0900000000001 1502.0199999999998 1044.4900000000002 1502.5499999999997 1044.7700000000002C1503.3199999999997 1045.1600000000003 1503.8399999999997 1045.4600000000003 1504.1099999999997 1045.6700000000003C1505.1199999999997 1046.4100000000003 1505.9099999999996 1047.3300000000004 1506.4799999999996 1048.4500000000003C1507.0499999999995 1049.5600000000002 1507.3299999999995 1050.7400000000002 1507.3299999999995 1052.0000000000002C1507.3299999999995 1053.2600000000002 1507.0499999999995 1054.4400000000003 1506.4799999999996 1055.5500000000002C1505.9099999999996 1056.67 1505.1199999999997 1057.5900000000001 1504.1099999999997 1058.3300000000002C1503.8399999999997 1058.5400000000002 1503.3199999999997 1058.8400000000001 1502.5499999999997 1059.2300000000002C1502.0199999999998 1059.5100000000002 1501.7599999999998 1059.9100000000003 1501.7599999999998 1060.4400000000003C1501.7599999999998 1060.8000000000002 1501.8899999999999 1061.1000000000004 1502.1399999999999 1061.3600000000004C1502.3999999999999 1061.6200000000003 1502.7199999999998 1061.7500000000005 1503.09 1061.7500000000005C1503.25 1061.7500000000005 1503.4199999999998 1061.7200000000005 1503.6 1061.6500000000005C1505.51 1060.8400000000006 1507.05 1059.5600000000006 1508.2099999999998 1057.7900000000006C1509.37 1056.0200000000007 1509.9499999999998 1054.0900000000006 1509.9499999999998 1052.0000000000007C1509.9499999999998 1049.9100000000008 1509.37 1047.9800000000007 1508.2099999999998 1046.2100000000007C1507.0499999999997 1044.4400000000007 1505.5099999999998 1043.1600000000008 1503.6 1042.3500000000008Z " fill="#ffffff" transform="matrix(1,0,0,1,-1482,-1042)"></path></svg>